<svg width="424" height="176" viewBox="0 0 424 176" fill="none" xmlns="http://www.w3.org/2000/svg">
<path fill-rule="evenodd" clip-rule="evenodd" d="M91.5128 36.8405C92.3228 36.9976 93.0709 36.3781 93.0709 35.5529V10.2241C93.0709 8.90744 93.973 7.76121 95.2664 7.51477C114.884 3.77668 152.253 5.93772 164.377 41.7105C164.777 42.8892 165.874 43.7253 167.118 43.7253H308.636C308.828 43.7253 309.012 43.698 309.2 43.6557C309.699 43.5428 310.18 43.3237 310.58 43.0037C312.661 41.339 316.744 40.0348 323.052 40.7541C323.775 40.8364 324.509 40.6668 325.094 40.2352C325.509 39.9286 325.949 39.5991 326.407 39.2561C330.459 36.2204 335.933 32.1199 338.474 33.374C341.834 35.0324 343.342 42.1723 342.347 47.7079C342.119 48.9812 342.579 50.321 343.588 51.1296C347.014 53.8725 350.879 58.4109 349.91 61.5989C348.9 64.9217 340.386 66.0442 335.127 65.9377C333.978 65.9144 332.889 66.5009 332.316 67.4976C330.591 70.502 328.018 74.2598 325.132 76.2351C324.166 76.8963 323.442 77.9353 323.445 79.106C323.45 80.9253 323.423 82.8317 323.362 84.8289C323.306 86.656 324.957 88.0798 326.784 88.0415C332.18 87.9286 338.842 89.872 339.023 98.5189C339.049 99.7771 339.738 100.95 340.906 101.419C368.675 112.551 421.422 141.53 423.283 163.211C425.666 190.966 269.849 167.445 212.671 150.04C211.824 149.782 208.971 147.849 206.885 146.022C205.432 144.751 202.571 142.983 200.64 142.983H177.848C176.715 142.983 175.693 143.66 175.25 144.702L164.321 170.43C163.879 171.472 162.856 172.149 161.723 172.149H138.375C137.205 172.149 136.156 171.427 135.739 170.334L117.845 123.525C117.544 122.739 116.932 122.137 116.136 121.866C71.8721 106.818 -7.86891 76.3576 0.628256 44.6661C7.11469 20.4739 78.1595 34.2511 91.5128 36.8405Z" fill="#07374B"/>
<g filter="url(#filter0_d_395_922)">
<path fill-rule="evenodd" clip-rule="evenodd" d="M244.652 139.387L215.851 139.082C312.47 163.679 397.27 171.647 408.132 161.287C414.116 154.652 379.584 130.442 315.048 106.243L314.995 111.049C315.7 111.374 316.401 111.7 317.096 112.025L321.978 112.077C322.454 112.082 322.836 112.472 322.83 112.948L322.811 114.753C343.363 124.772 358.403 134.509 357.874 140.587C357.105 149.42 314.764 153.363 244.652 139.387ZM295.883 102.702L295.919 99.3851C276.652 92.78 255.195 86.3015 231.766 80.3144C247.976 84.4891 272.647 93.0599 295.883 102.702Z" fill="#F4F4F4"/>
<path fill-rule="evenodd" clip-rule="evenodd" d="M122.77 110.413L118.363 103.852C107.581 104.767 105.029 103.897 103.863 102.338C103.302 101.588 107.164 99.4507 110.709 97.4896C110.924 97.3707 111.137 97.2524 111.349 97.1351C93.1528 90.2088 64.1375 69.5727 65.4714 60.2576C66.9265 50.0959 103.412 52.5056 140.726 58.6484C140.717 58.3908 140.705 58.1196 140.692 57.8354C140.663 57.1475 140.629 56.383 140.614 55.5491C62.1896 37.8795 11.9432 39.8613 13.5718 49.3962C15.4344 67.9137 94.0821 99.7686 122.77 110.413ZM174.542 63.9952L174.53 65.148C187.011 67.8945 198.224 70.772 206.555 73.364C195.551 69.9179 184.866 66.802 174.542 63.9952Z" fill="#F4F4F4"/>
<rect width="2.6184" height="25.8499" transform="matrix(0.999944 0.0105948 -0.0108705 0.99994 107.649 16.7159)" fill="white"/>
<path d="M165.74 100.392L145.532 155.824L158.274 155.959L181.017 92.8115L165.74 100.392Z" fill="white"/>
<path d="M117.469 77.1378L145.532 155.824M145.532 155.824L165.74 100.392L181.017 92.8115L158.274 155.959L145.532 155.824Z" stroke="white" stroke-width="2.90313"/>
<path d="M158.229 53.6422L190.26 53.9815L190.232 56.5811L173.71 56.406L173.586 67.8174L181.692 67.9033L181.664 70.5469L173.557 70.461L173.431 82.0046L189.954 82.1797L189.925 84.8232L157.894 84.4838L158.229 53.6422ZM214.331 65.2968C217.816 66.2738 220.417 67.5498 222.133 69.125C223.849 70.6707 224.694 72.6773 224.667 75.1446C224.646 77.1126 224.01 78.8684 222.759 80.4121C221.509 81.9558 219.674 83.1555 217.256 84.0112C214.867 84.8672 211.969 85.2771 208.562 85.241C204.538 85.1984 200.989 84.6467 197.916 83.586C194.873 82.4962 192.493 81.1931 190.776 79.6767L192.252 77.7094C193.766 78.9299 195.679 79.9783 197.99 80.8547C200.301 81.7311 202.793 82.1835 205.466 82.2118C207.199 82.2302 208.509 81.9944 209.396 81.5044C210.312 81.0147 210.775 80.3145 210.784 79.404C210.802 77.8178 209.244 76.5675 206.11 75.653L200.401 73.9181C197.297 72.9451 194.903 71.6125 193.218 69.9202C191.562 68.2282 190.746 66.2367 190.771 63.9456C190.792 62.0363 191.413 60.3097 192.634 58.7657C193.855 57.2217 195.616 56.0212 197.917 55.1643C200.247 54.2783 203.028 53.8524 206.259 53.8867C209.343 53.9194 212.174 54.3019 214.751 55.0342C217.357 55.7668 219.478 56.6412 221.112 57.6573L219.636 59.6687C218.264 58.861 216.612 58.1678 214.679 57.5892C212.776 57.0109 210.767 56.7105 208.652 56.6881C206.801 56.6685 205.374 56.9471 204.369 57.524C203.393 58.0718 202.9 58.8451 202.889 59.8438C202.881 60.6075 203.241 61.2869 203.969 61.8822C204.697 62.448 206.086 63.0209 208.136 63.6008L214.331 65.2968ZM227.115 54.372L241.479 54.5242L241.143 85.3659L226.78 85.2137L227.115 54.372ZM243.815 69.9275C243.871 64.7285 245.191 60.8795 247.774 58.3805C249.437 56.753 251.284 55.6857 253.317 55.1784C255.349 54.6712 258.01 54.435 261.3 54.4699C264.355 54.5022 266.805 54.7485 268.651 55.2087C270.526 55.6398 272.059 56.5521 273.248 57.9454C274.234 59.1015 274.997 60.505 275.538 62.1558C276.107 63.7775 276.428 65.3672 276.499 66.9249L273.988 66.8983C273.885 65.5753 273.576 64.2207 273.063 62.8346C272.579 61.4194 271.799 60.2067 270.723 59.1965C269.647 58.1569 268.272 57.6282 266.598 57.6105C265.041 57.594 263.741 58.2706 262.698 59.6402C261.804 60.8352 261.155 62.4293 260.751 64.4226C260.38 66.1813 260.183 68.074 260.161 70.1007C260.125 73.4199 260.506 76.2 261.304 78.441C262.36 81.3017 264.033 82.7442 266.324 82.7685L266.457 70.564L279.939 70.7069L279.775 85.7752C275.546 85.7304 270.757 85.7384 265.41 85.7993L260.96 85.7962C257.728 85.762 255.103 85.4257 253.083 84.7874C251.093 84.12 249.386 83.0591 247.962 81.6045C245.144 78.7252 243.761 74.8328 243.815 69.9275ZM282.577 54.9597L295.531 55.0969L308.228 70.6541L308.396 55.2332L311.04 55.2612L310.704 86.1029L300.35 85.9932L285.153 65.2981L284.929 85.8298L282.242 85.8014L282.577 54.9597Z" fill="white"/>
<path d="M185.686 97.8804L217.717 98.2198L217.689 100.819L201.167 100.644L201.043 112.056L209.15 112.142L209.121 114.785L201.014 114.699L200.888 126.243L217.411 126.418L217.382 129.062L185.351 128.722L185.686 97.8804ZM220.237 98.2465L249.713 98.5588C251.152 98.5741 252.47 98.9552 253.666 99.7023C254.892 100.42 255.851 101.4 256.542 102.641C257.263 103.853 257.616 105.179 257.601 106.618C257.58 108.527 256.974 110.254 255.782 111.798C254.59 113.343 253.096 114.326 251.299 114.747C252.88 115.205 254.164 116.056 255.149 117.3C256.164 118.544 256.663 119.945 256.646 121.502L256.559 129.477L241.799 129.32L241.903 119.759C241.913 118.819 241.745 118.083 241.398 117.551C240.994 116.93 240.529 116.469 240.003 116.17C239.419 115.841 238.761 115.599 238.028 115.444C237.266 115.289 236.547 115.193 235.872 115.157L234.683 115.1L234.529 129.243L219.901 129.088L220.237 98.2465ZM236.253 112.561C237.31 112.572 238.282 112.333 239.169 111.843C240.085 111.324 240.798 110.626 241.307 109.75C241.845 108.845 242.12 107.879 242.131 106.851C242.143 105.793 241.889 104.821 241.37 103.934C240.88 103.019 240.183 102.291 239.279 101.753C238.403 101.215 237.437 100.94 236.379 100.929L234.837 100.913L234.71 112.589L236.253 112.561ZM283.352 109.975C286.837 110.952 289.438 112.228 291.154 113.804C292.87 115.349 293.715 117.356 293.688 119.823C293.667 121.791 293.031 123.547 291.78 125.091C290.53 126.635 288.695 127.834 286.277 128.69C283.888 129.546 280.99 129.956 277.583 129.92C273.559 129.877 270.01 129.325 266.937 128.265C263.894 127.175 261.514 125.872 259.797 124.355L261.273 122.388C262.787 123.609 264.7 124.657 267.011 125.533C269.322 126.41 271.814 126.862 274.487 126.89C276.22 126.909 277.53 126.673 278.417 126.183C279.333 125.693 279.796 124.993 279.806 124.083C279.823 122.496 278.265 121.246 275.132 120.332L269.422 118.597C266.319 117.624 263.924 116.291 262.239 114.599C260.583 112.907 259.767 110.915 259.792 108.624C259.813 106.715 260.434 104.988 261.655 103.444C262.876 101.9 264.637 100.7 266.938 99.843C269.268 98.957 272.049 98.5311 275.28 98.5653C278.364 98.598 281.195 98.9805 283.772 99.7129C286.379 100.446 288.499 101.32 290.133 102.336L288.657 104.347C287.285 103.54 285.633 102.846 283.7 102.268C281.797 101.69 279.788 101.389 277.673 101.367C275.823 101.347 274.395 101.626 273.39 102.203C272.414 102.75 271.921 103.524 271.91 104.522C271.902 105.286 272.262 105.966 272.99 106.561C273.718 107.127 275.107 107.7 277.157 108.279L283.352 109.975ZM296.136 99.0507L328.168 99.3901L328.139 101.99L311.617 101.815L311.493 113.226L319.6 113.312L319.571 115.955L311.464 115.87L311.339 127.413L327.861 127.588L327.832 130.232L295.801 129.892L296.136 99.0507Z" fill="white"/>
<path d="M157.175 60.3278C156.916 84.1205 137.169 103.201 113.069 102.946C88.9683 102.691 143.695 95.9459 144.084 60.1891C144.472 24.4322 89.905 16.5295 114.005 16.7849C138.106 17.0402 157.433 36.5351 157.175 60.3278Z" fill="white"/>
</g>
<path d="M329.413 47.4885L320.836 47.0181L326.023 54.9327L325.124 63.4827L331.795 57.8377H341.802L335.607 50.7815L336.084 42.314L329.413 47.4885Z" fill="#FAFCF7"/>
<path d="M213.026 33.2781L204.998 42.926C204.462 43.5706 204.385 44.4814 204.805 45.2071L205.554 46.5009C205.911 47.1187 206.571 47.499 207.285 47.499H317.12C317.716 47.499 318.28 47.2338 318.66 46.7754L322.595 42.0281C322.611 42.0094 322.624 41.9891 322.635 41.9676C325.602 36.1933 324.951 29.2223 320.965 24.0978L320.581 23.6048C320.529 23.5372 320.503 23.4529 320.508 23.3675L321.162 12.0483C321.229 10.9002 320.316 9.93278 319.166 9.93278H295.285L294.071 12.8901C293.548 14.1649 291.918 14.5354 290.795 13.7366C283.128 8.28307 275.662 9.86932 269.664 14.4364C268.889 15.0265 267.806 15.039 267.028 14.453C256.272 6.35226 247.97 9.26721 241.752 14.411C241.01 15.0241 239.936 15.067 239.144 14.521C222.028 2.71866 211.219 16.2178 206.991 27.4563C206.519 28.7099 207.479 29.9989 208.818 29.9989H211.488C213.183 29.9989 214.11 31.9751 213.026 33.2781Z" fill="#07374B"/>
<path d="M214.635 45.1912L223.133 32.3389C226.056 28.0546 227.517 25.0825 227.514 23.4227C227.512 22.5668 227.239 21.8929 226.693 21.4011C226.148 20.8833 225.408 20.6251 224.475 20.6267C223.204 20.6288 222.102 20.9808 221.17 21.6826C220.237 22.3845 219.499 23.2286 218.956 24.2151C218.439 25.2015 218.117 26.1227 217.989 26.9788L215.616 26.9828C216.103 24.1291 217.37 21.8705 219.416 20.2072C221.488 18.5439 224.249 17.7093 227.699 17.7036C229.54 17.7005 231.291 18.0088 232.952 18.6285C234.613 19.2481 235.95 20.2055 236.964 21.5006C238.004 22.7697 238.525 24.3379 238.528 26.2053C238.53 27.0352 238.44 27.8523 238.26 28.6567C238.08 29.3832 237.77 30.2006 237.331 31.1091C236.891 32.0176 236.426 32.8613 235.935 33.6402L229.959 42.8314L239.802 42.8149L239.806 45.1491L214.635 45.1912ZM254.067 17.6594C256.791 17.6549 259.165 18.2345 261.19 19.3982C263.241 20.5619 264.813 22.1932 265.905 24.2921C266.998 26.3651 267.547 28.7503 267.552 31.4476C267.556 34.1708 267.016 36.5837 265.93 38.6863C264.844 40.763 263.278 42.3866 261.231 43.5571C259.21 44.7276 256.838 45.3151 254.115 45.3197C251.392 45.3243 249.005 44.7447 246.954 43.581C244.929 42.4173 243.357 40.799 242.238 38.726C241.145 36.627 240.596 34.2159 240.592 31.4927C240.587 28.7954 241.128 26.4084 242.213 24.3318C243.325 22.2291 244.891 20.5926 246.912 19.4221C248.959 18.2515 251.344 17.664 254.067 17.6594ZM251.623 21.4372C251.183 22.216 250.9 23.3965 250.773 24.9788C250.671 25.9645 250.623 28.0265 250.628 31.1647L257.19 23.5286C257.033 22.673 256.798 21.9732 256.486 21.429C255.965 20.4443 255.161 19.9529 254.071 19.9547C252.982 19.9566 252.166 20.4507 251.623 21.4372ZM256.52 41.542C256.96 40.7632 257.243 39.5827 257.37 38.0004C257.498 36.7553 257.559 34.7192 257.554 31.8923L250.993 39.5672C251.15 40.4488 251.371 41.1097 251.657 41.5502C252.204 42.5348 253.022 43.0262 254.111 43.0244C255.2 43.0226 256.003 42.5285 256.52 41.542ZM268.089 45.1018L276.587 32.2495C279.51 27.9652 280.971 24.9931 280.968 23.3332C280.966 22.4774 280.693 21.8035 280.147 21.3116C279.602 20.7938 278.862 20.5357 277.929 20.5373C276.658 20.5394 275.556 20.8914 274.624 21.5932C273.691 22.295 272.953 23.1392 272.411 24.1256C271.893 25.112 271.571 26.0333 271.443 26.8894L269.07 26.8934C269.557 24.0396 270.824 21.7811 272.87 20.1178C274.942 18.4545 277.703 17.6199 281.153 17.6141C282.994 17.6111 284.745 17.9193 286.406 18.539C288.067 19.1587 289.404 20.1161 290.418 21.4112C291.458 22.6803 291.979 24.2485 291.982 26.1159C291.984 26.9458 291.894 27.7629 291.714 28.5672C291.534 29.2937 291.224 30.1112 290.785 31.0197C290.345 31.9282 289.88 32.7719 289.389 33.5508L283.413 42.742L293.256 42.7255L293.26 45.0597L268.089 45.1018ZM306.701 45.2317C303.822 45.2365 301.383 44.7867 299.384 43.8823C297.386 42.9779 295.854 41.7356 294.787 40.1553C293.721 38.5491 293.109 36.7216 292.95 34.673L295.323 34.669C295.533 36.3026 296.054 37.6893 296.886 38.8291C297.718 39.9429 298.744 40.7841 299.964 41.3526C301.184 41.9212 302.481 42.2043 303.855 42.202C305.619 42.1991 307.006 41.7299 308.016 40.7945C309.026 39.8592 309.529 38.6782 309.527 37.2518C309.524 35.5141 308.912 34.2054 307.692 33.3256C306.471 32.4458 305.044 31.8906 303.409 31.6599C301.775 31.4033 299.674 31.2253 297.106 31.1258L294.694 31.0132L296.5 17.8219L317.118 17.7874L317.122 20.0827L307.163 20.0993L306.665 24.5352C310.997 24.6576 314.318 25.5598 316.629 27.2417C318.966 28.8977 320.137 31.2948 320.143 34.433C320.146 36.5078 319.618 38.3631 318.557 39.9988C317.497 41.6345 315.943 42.921 313.895 43.8581C311.874 44.7692 309.476 45.2271 306.701 45.2317Z" fill="white"/>
<defs>
<filter id="filter0_d_395_922" x="9.77011" y="16.7159" width="402.792" height="156.529" filterUnits="userSpaceOnUse" color-interpolation-filters="sRGB">
<feFlood flood-opacity="0" result="BackgroundImageFix"/>
<feColorMatrix in="SourceAlpha" type="matrix" values="0 0 0 0 0 0 0 0 0 0 0 0 0 0 0 0 0 0 127 0" result="hardAlpha"/>
<feOffset dy="3.76333"/>
<feGaussianBlur stdDeviation="1.88167"/>
<feComposite in2="hardAlpha" operator="out"/>
<feColorMatrix type="matrix" values="0 0 0 0 0 0 0 0 0 0 0 0 0 0 0 0 0 0 0.05 0"/>
<feBlend mode="normal" in2="BackgroundImageFix" result="effect1_dropShadow_395_922"/>
<feBlend mode="normal" in="SourceGraphic" in2="effect1_dropShadow_395_922" result="shape"/>
</filter>
</defs>
</svg>
